<svg xmlns="http://www.w3.org/2000/svg" width="174" height="174" viewBox="0 0 174 174">
  <g id="Grupo_1655" data-name="Grupo 1655" transform="translate(-215 -1101)">
    <circle id="Elipse_2" data-name="Elipse 2" cx="87" cy="87" r="87" transform="translate(215 1101)" fill="#7cef90"/>
    <g id="layer1" transform="translate(139.982 958.403)">
      <path id="path2125" d="M118.041,273.161c-.374-.605,3.725-5.442,9.635-11.371,8.265-8.29,9.963-10.442,8.642-10.948-4.227-1.622-5.386-8.178-2.549-14.426,2.35-5.177,4.79-5.326,8.074-.492,3.266,4.806,3.145,8.705-.373,12.076-2.185,2.093-2.543,2.934-1.664,3.9.9,1,1.68.7,4.019-1.539,3.655-3.5,7.248-3.581,12.028-.269,4.015,2.783,4.417,4.082,1.951,6.313-4.6,4.165-11.609,4.271-15.644.236l-2.309-2.309-9.905,9.939c-10.189,10.224-10.8,10.677-11.9,8.886Zm39.229-26.529a32.653,32.653,0,0,0-4.755-3.133c-1.994-.714,3.238-5.42,6.026-5.42,2.568,0,10.437,4.971,10.437,6.593,0,1.336-4.809,4.826-6.547,4.753C161.586,249.39,159.264,248.133,157.27,246.633Zm-10.061-8.67a18.454,18.454,0,0,0-3.441-5.6l-2.341-2.443,1.762-3.29c2.3-4.285,4.066-4.518,7.085-.93,4.015,4.772,4.322,9.133.886,12.569l-2.851,2.851Zm20.9.678a17.211,17.211,0,0,0-4.97-3.469l-2.8-1.16,2.094-2.228c3.85-4.1,9.072-3.392,14.044,1.9l2.023,2.153-2.145,1.963c-3.505,3.209-5.8,3.443-8.246.841Zm-11.491-8.932c0-.943-1.308-3.493-2.907-5.667-3.069-4.173-2.969-5.625.636-9.23,1.427-1.427,1.691-1.414,3.432.161,4.825,4.367,5.911,11.031,2.343,14.383-2.678,2.516-3.5,2.6-3.5.353Zm19.494-1.138c-2.092-1.526-4.338-2.792-4.992-2.814-3.45-.113,2.064-5.744,5.624-5.744,2.467,0,10.3,5.014,10.3,6.593,0,1.136-4.693,4.829-6.071,4.779C180.39,231.363,178.2,230.1,176.109,228.571ZM164.489,218.3a52.043,52.043,0,0,0-3.284-6.066c-1.337-1.826.462-6.289,2.914-7.23,1.966-.754,6.545,4.812,7.309,8.886.564,3.008.289,3.823-2.089,6.17l-2.739,2.7Zm22.141,2.735a19.343,19.343,0,0,0-5.021-3.429l-3.36-1.595,2.876-2.876c3.518-3.519,7.517-3.182,12.6,1.061,3.651,3.048,3.22,4.586-2.047,7.309-3.289,1.7-3.063,1.722-5.048-.471Zm-11.947-9.389c0-.943-1.263-3.432-2.807-5.531-2.674-3.636-2.739-3.947-1.371-6.584,2.816-5.428,5.634-4.87,8.839,1.752,2.527,5.22,2.507,5.618-.467,9.152-2.789,3.314-4.195,3.72-4.195,1.211Zm21.385-.2a16.942,16.942,0,0,0-4.44-2.923l-3.846-1.962,2.662-2.779c3.668-3.829,14.668-3.461,14.668.49,0,3.179-7.726,9.307-9.044,7.174Zm-11.876-8.884c0-.712-1.024-2.8-2.276-4.648-2.2-3.238-2.22-3.44-.637-5.853,3.566-5.436,6.8-6.545,8.466-2.9,2.013,4.419,1.382,9.317-1.563,12.139C185.2,204.146,184.192,204.466,184.192,202.554Zm14.117-5.1c-3.36-.355-3.485-.507-3.81-4.584-.326-4.1-.234-4.257,3.256-5.654,6.894-2.758,8.659-2.12,7.974,2.881-.622,4.54-2.119,8.154-3.266,7.885-.374-.088-2.243-.325-4.154-.527Z" transform="translate(0)" fill="#fff"/>
    </g>
  </g>
</svg>
