<svg xmlns="http://www.w3.org/2000/svg" width="174" height="174" viewBox="0 0 174 174">
  <g id="Grupo_1657" data-name="Grupo 1657" transform="translate(-1532 -1087)">
    <circle id="Elipse_8" data-name="Elipse 8" cx="87" cy="87" r="87" transform="translate(1532 1087)" fill="#ffca61"/>
    <g id="layer1" transform="translate(1420.978 952.544)">
      <path id="path2497" d="M166.831,266.613c-2.68-2.108-3.521-5.2-3.818-14.047l-.249-7.42H232.28l-.264,7.811c-.294,8.7-1.631,12.655-4.813,14.237-1.447.719-9.265.974-30.162.983-27.108.012-28.287-.05-30.21-1.563Zm-10.272-26.718c-1.618-2.311-1.618-9.839,0-12.15l1.216-1.736h79.493l1.216,1.736c.746,1.065,1.216,3.412,1.216,6.075s-.47,5.009-1.216,6.075l-1.216,1.736H157.775Zm4.252-24.324c0-13.787,3.129-22.482,10.88-30.233,20.443-20.443,55.775-9.763,61.681,18.644,1.522,7.322,1.15,18.9-.607,18.9-1.337,0-1.5-.856-1.835-9.568-.414-10.787-1.819-15.537-6.459-21.842-15.622-21.227-48.749-16.815-58.245,7.757-1.348,3.489-1.829,6.693-2.113,14.085-.334,8.712-.5,9.568-1.835,9.568s-1.468-.677-1.468-7.314Zm8.857,6.1c-1.162-3.027,8.105-10.48,14.531-11.685a10.374,10.374,0,0,0,4.622-2.4c2.05-2.05,3.608-2.393,4.478-.985.321.519-.321,1.538-1.516,2.408a4.629,4.629,0,0,0-2.072,3.4c0,2.338,1.268,2.424,3.063.208,2.2-2.72,8.068-.25,12.165,5.12,3.84,5.034,3.458,5.152-16.789,5.152-15.584,0-18.077-.164-18.481-1.216Zm40.655-1.323a42.107,42.107,0,0,0-3.641-5.518c-3.023-3.847-2.214-4.687,4.9-5.089,6.843-.387,8.666.079,12.089,3.084,4.37,3.837,3.486,6.156-2.347,6.156-2.563,0-4.182,1.138-3.124,2.2.291.291,2.523.743,4.96,1,3.686.4,3.088.495-3.556.59l-7.986.115Zm5.164-.279a1.3,1.3,0,0,0-1.432-1.088c-1.96,0-2.625.829-1.629,2.03a1.721,1.721,0,0,0,3.06-.942Zm-13.6-13.983a6.1,6.1,0,0,1,5.808-7.414c2.244,0,2.589,1.373,1.138,4.53-2.3,5-6.025,6.55-6.946,2.883Zm19.068,1.178a12.785,12.785,0,0,0-4.906-.769c-4.728-.015-5.54-1.54-2.506-4.707,3.854-4.023,8.856-4,10.952.057,2.162,4.182-.1,7.643-3.54,5.419Z" fill="#fff"/>
    </g>
  </g>
</svg>
