<svg xmlns="http://www.w3.org/2000/svg" width="174" height="174" viewBox="0 0 174 174">
  <g id="Grupo_1660" data-name="Grupo 1660" transform="translate(-1532 -1589)">
    <circle id="Elipse_9" data-name="Elipse 9" cx="87" cy="87" r="87" transform="translate(1532 1589)" fill="#ff8fc0"/>
    <path id="Icon_metro-books" data-name="Icon metro-books" d="M20.12,8.571H5.078a2.514,2.514,0,0,0-2.507,2.507V66.23a2.514,2.514,0,0,0,2.507,2.507H20.12a2.514,2.514,0,0,0,2.507-2.507V11.078A2.514,2.514,0,0,0,20.12,8.571ZM17.613,23.613H7.585V18.6H17.613v5.014ZM45.189,8.571H30.147a2.514,2.514,0,0,0-2.507,2.507V66.23a2.514,2.514,0,0,0,2.507,2.507H45.189A2.514,2.514,0,0,0,47.7,66.23V11.078a2.514,2.514,0,0,0-2.507-2.507ZM42.682,23.613H32.654V18.6H42.682ZM62.509,12.448,49.076,19.216a2.514,2.514,0,0,0-1.111,3.367l22.56,44.776a2.514,2.514,0,0,0,3.367,1.111L87.326,61.7a2.514,2.514,0,0,0,1.111-3.367L65.876,13.559a2.514,2.514,0,0,0-3.367-1.111ZM75.272,66.23a2.507,2.507,0,1,1-2.507-2.507A2.507,2.507,0,0,1,75.272,66.23Z" transform="translate(1573.429 1637.429)" fill="#fff"/>
  </g>
</svg>
