<svg xmlns="http://www.w3.org/2000/svg" width="174" height="174" viewBox="0 0 174 174">
  <g id="Grupo_1677" data-name="Grupo 1677" transform="translate(-654 -2081)">
    <g id="Grupo_1661" data-name="Grupo 1661">
      <g id="Grupo_1676" data-name="Grupo 1676">
        <circle id="Elipse_11" data-name="Elipse 11" cx="87" cy="87" r="87" transform="translate(654 2081)" fill="#ffdc2a"/>
      </g>
    </g>
    <g id="layer1" transform="translate(631.389 1958.665)">
      <path id="path836" d="M87.751,252.4c-5.051-13.215-9.147-29.618-9.912-39.692-.936-12.324.933-20.976,6.911-31.991a58.451,58.451,0,0,0,3.213-8.137c1.39-4.413,1.413-5.623.143-7.359a7.82,7.82,0,0,1-1.52-3.574c0-2.07,4.175-1.887,4.983.219.558,1.455,1.4,1.326,5.549-.857,6.789-3.568,17.847-3.568,24.636,0,4.153,2.183,4.991,2.312,5.549.857.808-2.105,4.983-2.289,4.983-.219a7.82,7.82,0,0,1-1.52,3.574c-1.27,1.737-1.246,2.946.143,7.359a58.455,58.455,0,0,0,3.213,8.137c10.379,19.126,9.379,39.17-3.664,73.4-2.565,6.732-3.2,7.561-5.01,6.59-1.962-1.05-1.894-1.578,1.26-9.7,8.229-21.193,12.656-48.42,8.716-53.609-3.006-3.958-4.3-1.177-3.55,7.657.787,9.334-.467,16.743-5.55,32.792-4.137,13.062-4.115,13.02-6.138,11.341-1.336-1.108-1.612-.652-1.612,2.661,0,2.2.778,4.644,1.728,5.433,1.322,1.1,1.421,1.8.42,3.01s-1.689,1.26-2.87.28a2.045,2.045,0,0,0-3.124,0c-1.182.981-1.881.912-2.87-.28s-.9-1.913.42-3.01a6.957,6.957,0,0,0,1.728-4.722c0-3.074-.3-3.288-4.57-3.288s-4.57.214-4.57,3.288a6.957,6.957,0,0,0,1.728,4.722c1.322,1.1,1.421,1.8.42,3.01s-1.689,1.26-2.87.28a2.045,2.045,0,0,0-3.124,0c-1.182.981-1.881.912-2.87-.28s-.9-1.913.42-3.01c.95-.789,1.728-3.233,1.728-5.433,0-3.313-.277-3.769-1.612-2.661-2.023,1.679-2,1.721-6.138-11.341-5.074-16.017-6.337-23.464-5.555-32.735.554-6.572.362-8.3-.983-8.812-4.232-1.624-5.3,11.316-2.178,26.457,2.013,9.768,7.86,28.809,10.322,33.613,1.436,2.8,1.378,3.21-.608,4.273s-2.541.272-5.794-8.24Zm24.439-25.41,1.872-2.856h-9.246l1.872,2.856c1.029,1.571,2.267,2.856,2.751,2.856S111.16,228.564,112.19,226.993Zm-6.855-9.14L107.206,215H97.96l1.872,2.856c1.029,1.571,2.267,2.856,2.751,2.856S104.305,219.423,105.334,217.852Zm13.71,0L120.917,215h-9.246l1.872,2.856c1.029,1.571,2.267,2.856,2.751,2.856S118.016,219.423,119.045,217.852Zm-18.281-9.14,1.872-2.856H93.39l1.872,2.856c1.029,1.571,2.267,2.856,2.751,2.856S99.735,210.283,100.764,208.712Zm11.425,0,1.872-2.856h-9.246l1.872,2.856c1.029,1.571,2.267,2.856,2.751,2.856S111.16,210.283,112.19,208.712Zm11.425,0,1.872-2.856h-9.246l1.872,2.856c1.029,1.571,2.267,2.856,2.751,2.856S122.586,210.283,123.615,208.712Zm-8.669-18.724a62.306,62.306,0,0,1,9.06-6.313c3.043-1.533,3.71-2.536,3.7-5.555a12.478,12.478,0,0,0-1.125-5.4c-.916-1.418-1.111-1.433-1.125-.09-.026,2.366-3.475,5.8-5.824,5.8-1.114,0-3.05-1.3-4.3-2.895-2.554-3.247-2.974-2.919-4.075,3.18-.425,2.357-1.241,4.285-1.812,4.285s-1.387-1.928-1.812-4.285c-1.1-6.1-1.521-6.427-4.075-3.18-1.252,1.592-3.1,2.895-4.1,2.895-2.429,0-6-3.324-6.023-5.6-.017-1.594-.156-1.607-1.125-.108a12.512,12.512,0,0,0-1.125,5.4c-.013,3.118.646,4.031,4.267,5.893a52.824,52.824,0,0,1,8.855,6.26,54.493,54.493,0,0,0,4.936,4.1,51.613,51.613,0,0,0,5.713-4.394Zm-12.855-17.394c.985-1.594-1.989-3.561-3.34-2.209-1.1,1.1-.039,3.48,1.548,3.48a2.607,2.607,0,0,0,1.793-1.27Zm18.263.03a1.907,1.907,0,0,0-.228-2.237c-1.351-1.351-4.325.616-3.34,2.209,1,1.615,2.58,1.627,3.568.03Z" transform="translate(0 0)" fill="#fff"/>
    </g>
  </g>
</svg>
