<svg xmlns="http://www.w3.org/2000/svg" width="174" height="174" viewBox="0 0 174 174">
  <g id="Grupo_1678" data-name="Grupo 1678" transform="translate(-654 -1589)">
    <circle id="Elipse_5" data-name="Elipse 5" cx="87" cy="87" r="87" transform="translate(654 1589)" fill="#f97171"/>
    <g id="layer1" transform="translate(625.573 1480.901)">
      <path id="path1033" d="M94.558,238.531c-8.023-2.523-12.481-9.431-11.907-18.45.31-4.861,1.139-7.167,5.057-14.062,6.33-11.139,12.319-18.394,17.433-21.118,3.622-1.929,5.3-2.217,11.4-1.956,5.935.254,7.826.753,11.123,2.935,4.8,3.175,11.95,12.664,17.111,22.7,3.071,5.974,3.8,8.38,3.8,12.548,0,6.662-2.637,11.854-7.736,15.231-6.472,5.253-16.536,3.783-26.384,3.975-10.945.1-18.489-1.363-19.9-1.805Zm24.746-16.1v-4.721h4.7c4.228,0,5.361-.043,5.36-3.523,0-4.111-.118-4.031-5.263-4.031h-4.7l-.285-4.957c-.127-4.223.545-4.7-3.59-4.957-4.231.076-3.374,1.209-3.59,4.957l-.285,4.957h-4.7c-5.145,0-4.335-.136-4.486,3.9s.355,3.652,4.583,3.652h4.7v4.721c-.2,4.486-.05,4.721,3.777,4.721s3.777-.629,3.777-4.721ZM73.555,196.857c-6.423-5.639-6.88-16-.99-22.429,2.742-2.992,3.724-3.449,7.42-3.449,3.428,0,4.826.542,7.16,2.779,4.906,4.7,6.082,12.341,2.909,18.9-3.582,7.4-10.771,9.232-16.5,4.2Zm70.815,0c-6.423-5.639-6.88-16-.99-22.429,2.742-2.992,3.724-3.449,7.42-3.449,3.428,0,4.826.542,7.16,2.779,4.906,4.7,6.082,12.341,2.909,18.9-3.582,7.4-10.771,9.232-16.5,4.2ZM96.078,176.269c-5.2-3.173-7.549-12.677-4.749-19.248,4.545-10.667,16.267-10.438,20.761.405,2.657,6.411,1.562,12.345-3.148,17.055-4.146,4.146-8.095,4.695-12.863,1.787Zm26.035-1.787c-4.71-4.71-5.805-10.644-3.148-17.055,3.417-8.244,11.413-10.863,17.119-5.606,9.388,8.648,4.425,26.239-7.4,26.239C126.48,178.06,124.748,177.117,122.113,174.482Z" transform="translate(0)" fill="#fff"/>
    </g>
  </g>
</svg>
