<svg xmlns="http://www.w3.org/2000/svg" width="174" height="174" viewBox="0 0 174 174">
  <g id="Grupo_1659" data-name="Grupo 1659" transform="translate(-1093 -1589)">
    <circle id="Elipse_7" data-name="Elipse 7" cx="87" cy="87" r="87" transform="translate(1093 1589)" fill="#d693f2"/>
    <g id="layer1" transform="translate(1040.871 1446.859)">
      <path id="path1561" d="M121.48,267.86c-8.389-9.554-9.639-25.3-3.025-38.091,3.237-6.259,8.84-8.868,7.425-3.457-1.768,6.76,14.073,17.342,22.13,14.785,9.856-3.128-1.6,21.648-12.345,26.695-3.628,1.7-7.069,3.823-7.648,4.707S124.5,271.3,121.48,267.86Zm20.837-9.684c0-.876-2.583-2.493-5.741-3.593a68.523,68.523,0,0,1-12.365-6.38c-6.064-4.01-6.624-4.1-6.624-1.1,0,5.977,10.051,12.326,19.873,12.552C140.131,259.718,142.317,259.053,142.317,258.176Zm-.883-23.432c-12.042-6.66-14.846-15.932-7.146-23.632,5.944-5.944,8.684-5.448,11.4,2.065,1.765,4.882,3.945,7.041,9.187,9.1,7.7,3.023,8.538,5.8,3.34,11C154.341,237.147,146.949,237.8,141.433,234.745Zm-22.964-15.9c-10.233-5.659-19.182-19.254-18.21-27.661,1.06-9.174,24.7-3.819,35.419,8.022,2.947,3.256,2.862,3.552-2.056,7.188-2.821,2.086-5.659,6.2-6.307,9.153C126.061,221.258,124.131,221.978,118.469,218.847Zm36.769.282c-7.578-3.053-9.7-12.129-4.562-19.467,1.684-2.4,2.826-5.759,2.538-7.46-.513-3.033,5.611-6.623,11.3-6.623,4.655,0,2.606,3.077-2.765,4.151-8.956,1.791-6.087,4.608,3.533,3.469,6.043-.716,8.832-.411,8.832.966,0,1.107-1.263,2.013-2.807,2.013-2.182,0-1.789,1.21,1.766,5.435,10.55,12.538-1.3,24.178-17.834,17.517Zm17.107-11.2c0-3.329-6.452-8.81-8.721-7.408-4.344,2.685-.323,9.784,5.541,9.784C170.916,210.309,172.346,209.24,172.346,207.933Zm-36.613-12.805c-8.193-8.54-7.473-10.464,1.188-3.176,5.547,4.668,10.207,11.43,7.665,11.125-.763-.091-4.747-3.669-8.853-7.949Z" transform="translate(0 0)" fill="#fff"/>
    </g>
  </g>
</svg>
