<svg xmlns="http://www.w3.org/2000/svg" width="76" height="76" viewBox="0 0 76 76">
  <g id="Grupo_1672" data-name="Grupo 1672" transform="translate(-184 -222)">
    <g id="Elipse_364" data-name="Elipse 364" transform="translate(184 222)" fill="none" stroke="#fff" stroke-width="3">
      <circle cx="38" cy="38" r="38" stroke="none"/>
      <circle cx="38" cy="38" r="36.5" fill="none"/>
    </g>
    <g id="layer1" transform="translate(201.702 239.631)">
      <path id="path2125" d="M118.028,225.961c-.172-.279,1.717-2.509,4.441-5.242,3.81-3.822,4.593-4.813,3.984-5.047-1.948-.748-2.483-3.77-1.175-6.65,1.083-2.386,2.208-2.455,3.722-.227s1.45,4.013-.172,5.567c-1.007.965-1.172,1.353-.767,1.8s.774.323,1.852-.71c1.685-1.614,3.341-1.651,5.544-.124,1.851,1.283,2.036,1.882.9,2.91a5.3,5.3,0,0,1-7.211.109l-1.064-1.064-4.566,4.582C118.819,226.578,118.539,226.787,118.028,225.961Zm18.083-12.229a15.055,15.055,0,0,0-2.192-1.444c-.919-.329,1.493-2.5,2.778-2.5,1.184,0,4.811,2.292,4.811,3.039,0,.616-2.217,2.225-3.018,2.191A6.873,6.873,0,0,1,136.112,213.733Zm-4.638-4a8.507,8.507,0,0,0-1.586-2.581l-1.079-1.126.812-1.516c1.058-1.975,1.874-2.083,3.266-.429,1.851,2.2,1.992,4.21.408,5.794l-1.314,1.314Zm9.634.312a7.934,7.934,0,0,0-2.291-1.6l-1.291-.535.965-1.027c1.775-1.889,4.182-1.563,6.474.876l.932.992-.989.905c-1.616,1.479-2.674,1.587-3.8.388Zm-5.3-4.117a6.989,6.989,0,0,0-1.34-2.612c-1.415-1.924-1.369-2.593.293-4.255.658-.658.779-.652,1.582.074,2.224,2.013,2.725,5.085,1.08,6.63-1.235,1.16-1.616,1.2-1.616.163Zm8.986-.525a7.838,7.838,0,0,0-2.3-1.3c-1.59-.052.951-2.648,2.593-2.648,1.137,0,4.75,2.312,4.75,3.039,0,.524-2.163,2.226-2.8,2.2A8.256,8.256,0,0,1,144.8,205.407Zm-5.357-4.736a23.993,23.993,0,0,0-1.514-2.8c-.616-.842.213-2.9,1.343-3.333.906-.348,3.017,2.218,3.369,4.1.26,1.387.133,1.762-.963,2.844l-1.262,1.247Zm10.206,1.261a8.916,8.916,0,0,0-2.314-1.581l-1.549-.735,1.326-1.326c1.622-1.622,3.465-1.467,5.808.489,1.683,1.4,1.485,2.114-.943,3.369-1.516.784-1.412.794-2.327-.217Zm-5.507-4.328a6.7,6.7,0,0,0-1.294-2.55c-1.233-1.676-1.262-1.82-.632-3.035,1.3-2.5,2.6-2.245,4.075.808,1.165,2.406,1.155,2.59-.215,4.219-1.285,1.528-1.934,1.715-1.934.558Zm9.858-.094a7.811,7.811,0,0,0-2.047-1.347l-1.773-.9,1.227-1.281c1.691-1.765,6.762-1.6,6.762.226,0,1.465-3.561,4.29-4.169,3.307Zm-5.474-4.1a6.3,6.3,0,0,0-1.049-2.142c-1.013-1.493-1.023-1.586-.294-2.7,1.644-2.506,3.137-3.017,3.9-1.337a4.924,4.924,0,0,1-.721,5.6C148.988,194.147,148.522,194.295,148.522,193.413Zm6.508-2.351c-1.549-.164-1.607-.234-1.756-2.113s-.108-1.962,1.5-2.606c3.178-1.272,3.992-.977,3.676,1.328-.287,2.093-.977,3.759-1.506,3.635-.172-.041-1.034-.15-1.915-.243Z" transform="translate(-118.017 -185.597)" fill="#fff"/>
    </g>
  </g>
</svg>
