<svg xmlns="http://www.w3.org/2000/svg" width="76" height="76" viewBox="0 0 76 76">
  <g id="Grupo_1674" data-name="Grupo 1674" transform="translate(-484 -222)">
    <g id="Grupo_1673" data-name="Grupo 1673">
      <g id="Grupo_1671" data-name="Grupo 1671">
        <g id="Elipse_364" data-name="Elipse 364" transform="translate(484 222)" fill="none" stroke="#fff" stroke-width="3">
          <circle cx="38" cy="38" r="38" stroke="none"/>
          <circle cx="38" cy="38" r="36.5" fill="none"/>
        </g>
      </g>
    </g>
    <g id="layer1" transform="translate(344.925 60.696)">
      <path id="path2497" d="M161.263,222.069c-1.381-1.086-1.814-2.68-1.967-7.237l-.129-3.823h35.814l-.136,4.024c-.152,4.482-.84,6.52-2.479,7.335-.745.371-4.773.5-15.539.506-13.966.006-14.573-.026-15.564-.805ZM155.971,208.3c-.834-1.19-.834-5.069,0-6.259l.626-.894h40.954l.626.894a8.131,8.131,0,0,1,0,6.259l-.626.894H156.6Zm2.19-12.531c0-7.1,1.612-11.582,5.605-15.576,10.532-10.532,28.735-5.03,31.777,9.605.784,3.772.593,9.739-.313,9.739-.689,0-.773-.441-.945-4.929-.213-5.557-.937-8-3.327-11.253a17.3,17.3,0,0,0-30.007,4c-.695,1.8-.942,3.448-1.088,7.256-.172,4.489-.257,4.929-.945,4.929s-.756-.349-.756-3.768Zm4.563,3.141c-.6-1.56,4.176-5.4,7.486-6.02a5.344,5.344,0,0,0,2.381-1.235c1.056-1.056,1.859-1.233,2.307-.508.165.267-.165.792-.781,1.241a2.385,2.385,0,0,0-1.067,1.75c0,1.2.653,1.249,1.578.107,1.135-1.4,4.157-.129,6.267,2.638,1.978,2.594,1.782,2.654-8.65,2.654-8.029,0-9.313-.085-9.521-.627Zm20.945-.681a21.693,21.693,0,0,0-1.876-2.843c-1.558-1.982-1.141-2.415,2.526-2.622,3.525-.2,4.465.04,6.228,1.589,2.251,1.977,1.8,3.172-1.209,3.172-1.32,0-2.154.586-1.609,1.131a8.78,8.78,0,0,0,2.555.518c1.9.2,1.591.255-1.832.3l-4.114.059Zm2.66-.144a.67.67,0,0,0-.738-.561c-1.01,0-1.352.427-.839,1.046a.887.887,0,0,0,1.577-.485Zm-7.007-7.2a3.141,3.141,0,0,1,2.992-3.819c1.156,0,1.334.708.586,2.334C181.716,191.978,179.8,192.775,179.323,190.886Zm9.824.607a6.587,6.587,0,0,0-2.528-.4c-2.436-.008-2.854-.793-1.291-2.425,1.986-2.072,4.562-2.059,5.642.03,1.114,2.154-.051,3.938-1.824,2.792Z" fill="#fff"/>
    </g>
  </g>
</svg>
