<svg xmlns="http://www.w3.org/2000/svg" width="75.013" height="84" viewBox="0 0 75.013 84">
  <g id="g1193" transform="translate(-7.493 -3)">
    <path id="path1254" d="M30.507,85a6.878,6.878,0,0,1-2-3c0-.588-3.5-1-8.5-1-13.418,0-12.5,2.864-12.5-39,0-33.667.076-35.076,2-37,1.846-1.846,3.333-2,19.267-2H46.041L56.774,13.766,67.507,24.533V45h5.5c9.187,0,9.5.692,9.5,21,0,15.667-.157,17.157-2,19-1.884,1.884-3.333,2-25,2s-23.116-.116-25-2Zm46-14c0-5.5-.232-10-.516-10a60.193,60.193,0,0,0-6.746,4.534c-11.307,8.228-16.169,8.228-27.476,0A60.187,60.187,0,0,0,35.022,61c-.284,0-.516,4.5-.516,10V81h42ZM67.051,59.75c4.846-3.437,8.993-6.812,9.216-7.5C76.584,51.277,71.99,51,55.507,51s-21.077.277-20.761,1.25C35.523,54.646,52.667,66,55.507,66,57.254,66,61.421,63.744,67.051,59.75ZM52.986,17.973,44.007,8.947l-.295,7.688c-.162,4.229-.064,8.29.219,9.027C44.305,26.639,46.81,27,53.2,27h8.761Z" fill="#f2eb2b"/>
  </g>
</svg>
