<svg xmlns="http://www.w3.org/2000/svg" width="80.31" height="87.755" viewBox="0 0 80.31 87.755">
  <g id="g1365" transform="translate(-7.563 -4.123)">
    <path id="path1426" d="M61.175,90.818c-7.8-2.487-14.085-12.91-12.749-21.146,1.421-8.758,6.511-14.436,14.97-16.7C78.145,49.028,91.279,62.8,87.078,77.8,84.062,88.572,72.444,94.41,61.175,90.818ZM73.71,76.956c5.79-5.476,7.427-8.912,5.407-11.346-1.937-2.334-3.7-1.794-8.453,2.586l-4.419,4.073-3.1-2.292c-3.525-2.606-6.274-1.787-6.842,2.04C55.89,74.8,62.971,82.122,66.07,82.122c1.251,0,4.5-2.2,7.64-5.167ZM10.583,81.668s-1.841-1.46-2.455-10.846-.564-26.853-.564-26.853S7.514,25.8,8.128,16.417s2.455-9.84,2.455-9.84C13,4.161,13.305,4.123,30.288,4.123H47.54L59.834,16.417,72.128,28.711V44.123H68.309c-11.954,0-23.512,8.448-26.737,19.544a33.788,33.788,0,0,0,.136,18.206l.653,2.25H27.7c-14.234,0-14.734-.072-17.117-2.455ZM55.611,21.1,44.628,10.08,44.34,19.7c-.186,6.233.121,10.116.872,11.021.853,1.028,3.833,1.4,11.27,1.4H66.594" fill="#53f2c7"/>
  </g>
</svg>
