<svg xmlns="http://www.w3.org/2000/svg" width="80.429" height="87.596" viewBox="0 0 80.429 87.596">
  <g id="g1697" transform="translate(-7.571 -4.143)">
    <path id="path1758" d="M76,88V84.261l-5.25-.022c-7.638-.032-12.973-2.8-16.278-8.436-3.37-5.751-3.068-11.759.848-16.895C59.5,53.426,63.2,52.261,76.4,52.261H88v8H76.454c-10.925,0-11.677.132-14,2.455A8.061,8.061,0,0,0,60,68.261c0,5.106,3.782,8,10.454,8H76V68.783l5.739,5.739,5.739,5.739L81.739,86,76,91.739ZM7.825,44.261S7.255,16.741,9.74,9.795,27.765,4.261,27.765,4.261H47.53L59.765,16.525,72,28.79V44.261H68.678a30.013,30.013,0,0,0-7.806,1.528C45.629,50.983,39.336,68.752,48.221,81.511l1.915,2.75H29.068s-16.131,1.608-19.328-4S7.825,44.261,7.825,44.261ZM66,31.994c0-.147-4.95-5.2-11-11.233L44,9.795V32.261H55" fill="#fc605f"/>
  </g>
</svg>
