<svg xmlns="http://www.w3.org/2000/svg" width="60" height="78" viewBox="0 0 60 78">
  <g id="g1949" transform="translate(-15 -6)">
    <path id="path2010" d="M17,82c-1.924-1.924-2-3.333-2-37s.076-35.076,2-37c1.846-1.846,3.333-2,19.267-2H53.534L64.267,16.766,75,27.533V53.766C75,78.667,74.9,80.1,73,82s-3.333,2-28,2S18.9,83.9,17,82ZM56.5,60V57.5l-14.271-.278c-12.05-.234-14.362-.04-14.857,1.25a4.946,4.946,0,0,0,0,3.055c.495,1.29,2.807,1.484,14.857,1.25L56.5,62.5Zm6-12V45.5l-17.272-.274c-14.72-.233-17.359-.049-17.857,1.25a4.934,4.934,0,0,0,0,3.047c.5,1.3,3.137,1.483,17.857,1.25L62.5,50.5ZM60.479,20.973,51.5,11.947l-.295,7.688c-.162,4.229-.064,8.29.219,9.027C51.8,29.639,54.3,30,60.7,30h8.761Z" fill="#53bcf2"/>
  </g>
</svg>
