<svg xmlns="http://www.w3.org/2000/svg" width="79.884" height="88.171" viewBox="0 0 79.884 88.171">
  <g id="g2201" transform="translate(-8.058 -3.914)">
    <path id="path2262" d="M53.016,90.364c-2.1-2.533-.062-8.477,3.8-11.074,6.311-4.241,20.167-4.241,26.478,0,3.864,2.6,5.905,8.54,3.8,11.074-1.9,2.3-32.179,2.3-34.083,0Zm-42.5-8.9L8.058,79.005V8.823l2.455-2.455c2.416-2.416,2.723-2.455,19.706-2.455H47.47L59.764,16.208,72.058,28.5V43.914H69.27a20.924,20.924,0,0,0-7.242,2.25A17.363,17.363,0,0,0,52.91,66.653c1.133,4.238,1.093,4.37-2.238,7.295a24.4,24.4,0,0,0-5.05,6.473l-1.658,3.494h-15.5c-15.122,0-15.558-.06-17.953-2.455ZM55.541,20.893,44.558,9.872,44.27,19.5c-.186,6.233.121,10.116.872,11.021.853,1.028,3.833,1.4,11.27,1.4H66.524Zm7.917,47.621c-3.741-3.742-4.3-6.964-1.975-11.455,1.58-3.056,5.325-5.145,9.222-5.145,3.789,0,9.353,5.949,9.353,10,0,2.306-.95,4.15-3.4,6.6s-4.294,3.4-6.6,3.4-4.15-.95-6.6-3.4Z" fill="#ff3736"/>
  </g>
</svg>
