<svg xmlns="http://www.w3.org/2000/svg" width="83.775" height="100.464" viewBox="0 0 83.775 100.464">
  <g id="g830" transform="translate(-31.842 -9.766)">
    <path id="path914" d="M88.031,109.185a19.447,19.447,0,0,1-10.481-8.149L75.564,97.9l-19.8-.026-19.8-.026-2.044-2.044L31.87,93.765V58s-.063-20.638,0-34.288c0-.963,2.044-3.517,2.044-3.517,2.032-2.032,2.09-2.044,10.456-2.044h8.412l.205,5.068.205,5.068H73.467l.205-5.068.205-5.068H82.29c8.366,0,8.424.011,10.456,2.044l2.044,2.044V68.21l4.056.838a20.948,20.948,0,0,1,11.378,34.579c-5.012,5.709-14.866,8.176-22.192,5.557Zm12.438-4.021c6.165-2.172,11.1-9.151,11.1-15.7,0-8.8-7.979-16.778-16.778-16.778S78.011,80.664,78.011,89.463a16.988,16.988,0,0,0,5.1,11.74,16.2,16.2,0,0,0,17.362,3.961ZM89.217,95.776c-4.157-3.722-4.443-4.155-3.519-5.356.553-.719,1.095-1.438,1.2-1.6s1.483.741,3.053,2,3.106,2.022,3.412,1.69,2.317-3.358,4.469-6.722,4.155-6.107,4.452-6.095a5.257,5.257,0,0,1,1.823.995c1.207.915.943,1.5-4.458,9.94-3.158,4.932-5.78,9.018-5.827,9.08S91.706,98,89.217,95.776ZM79.125,75.123c.6-2.378-.494-3.507-6.142-6.351-5.734-2.888-6.214-4.441-3.219-10.419,1.415-2.824,2.347-11.044,1.6-14.156-.206-.865-1.677-2.395-3.269-3.4-3.734-2.357-8.187-2.066-10.97.716-1.676,1.676-1.846,2.352-1.9,7.592-.053,5.076.183,6.22,2.008,9.732,2.912,5.6,2.43,6.917-3.657,9.983-4.878,2.457-7.03,4.543-7.03,6.817,0,1.155,1.136,1.243,16.066,1.243H78.684ZM57.038,19.15c0-4.922.144-5.442,2.044-7.341a5.438,5.438,0,0,1,8.5,0c1.9,1.9,2.044,2.418,2.044,7.341v5.3H57.038Zm8.04-.995c0-1.281-.421-1.807-1.576-1.972-1.718-.244-2.693,1.255-2,3.069a1.752,1.752,0,0,0,2,.874c1.155-.164,1.576-.69,1.576-1.972Z" fill="#53f2c7"/>
  </g>
</svg>
