<?xml version="1.0" encoding="UTF-8" standalone="no"?>
<svg
   width="50"
   height="50"
   viewBox="0 0 50 50"
   version="1.1"
   id="svg9"
   sodipodi:docname="Grupo 1662.svg"
   inkscape:version="1.1 (c68e22c387, 2021-05-23)"
   xmlns:inkscape="http://www.inkscape.org/namespaces/inkscape"
   xmlns:sodipodi="http://sodipodi.sourceforge.net/DTD/sodipodi-0.dtd"
   xmlns="http://www.w3.org/2000/svg"
   xmlns:svg="http://www.w3.org/2000/svg">
  <defs
     id="defs13" />
  <sodipodi:namedview
     id="namedview11"
     pagecolor="#ffffff"
     bordercolor="#999999"
     borderopacity="1"
     inkscape:pageshadow="0"
     inkscape:pageopacity="0"
     inkscape:pagecheckerboard="0"
     showgrid="false"
     inkscape:zoom="3.4505716"
     inkscape:cx="51.295849"
     inkscape:cy="50.281524"
     inkscape:window-width="1366"
     inkscape:window-height="705"
     inkscape:window-x="-8"
     inkscape:window-y="-8"
     inkscape:window-maximized="1"
     inkscape:current-layer="svg9" />
  <g
     id="Grupo_1662"
     data-name="Grupo 1662"
     transform="matrix(0.61867492,0,0,0.64155443,-408.07244,-137.95483)">
    <g
       id="Elipse_364"
       data-name="Elipse 364"
       transform="translate(662,216)"
       fill="none"
       stroke="#ffffff"
       stroke-width="3">
      <circle
         cx="38"
         cy="38"
         r="38"
         stroke="none"
         id="circle2" />
      <circle
         cx="38"
         cy="38"
         r="36.5"
         fill="none"
         id="circle4" />
    </g>
    <path
       id="Icon_material-person-pin"
       data-name="Icon material-person-pin"
       d="M 34.786,3 H 8.286 A 3.785,3.785 0 0 0 4.5,6.786 v 26.5 a 3.785,3.785 0 0 0 3.786,3.786 h 7.571 l 5.679,5.679 5.679,-5.679 h 7.571 a 3.8,3.8 0 0 0 3.786,-3.786 V 6.786 A 3.8,3.8 0 0 0 34.786,3 Z m -13.25,6.246 a 5.111,5.111 0 1 1 -5.111,5.111 5.114,5.114 0 0 1 5.111,-5.111 z M 32.893,29.5 H 10.179 v -1.7 c 0,-3.786 7.571,-5.868 11.357,-5.868 3.786,0 11.357,2.079 11.357,5.868 z"
       transform="translate(678.464,231.125)"
       fill="#ffffff" />
  </g>
</svg>
