<svg version="1.2" xmlns="http://www.w3.org/2000/svg" viewBox="0 0 52 52" width="52" height="52">
	<title>Grupo 1700-svg</title>
	<style>
		.s0 { fill: #537cf2 } 
		.s1 { fill: #ffffff } 
	</style>
	<g id="Grupo_1700">
		<rect id="Retângulo_4064" class="s0" width="52" height="52" rx="10"></rect>
		<path id="Icon_awesome-file-export" fill-rule="evenodd" class="s1" d="m19.7 30.8q0.1 0.2 0.3 0.3 0.1 0.1 0.3 0.2 0.1 0.1 0.3 0.1h10.7v8.3q0 0.2-0.1 0.5-0.1 0.3-0.3 0.5-0.2 0.2-0.5 0.3-0.2 0.1-0.5 0.1h-20.4q-0.3 0-0.6-0.1-0.3-0.1-0.5-0.3-0.2-0.2-0.3-0.5-0.1-0.3-0.1-0.5v-28.2q0-0.3 0.1-0.6 0.1-0.3 0.3-0.5 0.2-0.2 0.5-0.3 0.3-0.1 0.6-0.1h12.1v8.3q0 0.3 0.1 0.5 0.1 0.3 0.3 0.5 0.2 0.2 0.5 0.3 0.3 0.1 0.6 0.1h8.2v7.8h3.9v-4q0-0.2 0.2-0.5 0.2-0.2 0.4-0.4 0.3-0.1 0.6 0 0.3 0.1 0.5 0.3l5.8 5.8q0.1 0.2 0.2 0.4 0.1 0.1 0.1 0.3 0 0.3-0.1 0.4-0.1 0.2-0.2 0.4l-5.8 5.8q-0.2 0.2-0.5 0.3-0.3 0.1-0.6 0-0.2-0.2-0.4-0.4-0.2-0.3-0.2-0.5v-4h-3.9v-3.9h-10.7q-0.2 0-0.3 0.1-0.2 0.1-0.3 0.2-0.2 0.1-0.3 0.3 0 0.2 0 0.4v1.9q0 0.2 0 0.4zm11.6-13h-7.7v-7.8h0.3q0.2 0 0.3 0 0.2 0.1 0.3 0.1 0.1 0.1 0.2 0.1 0.2 0.1 0.3 0.2l5.9 6q0.1 0.1 0.2 0.2 0.1 0.1 0.1 0.3 0.1 0.1 0.1 0.2 0 0.2 0 0.3z"/>
	</g>
</svg>