<svg xmlns="http://www.w3.org/2000/svg" width="76" height="76" viewBox="0 0 76 76">
  <g id="Grupo_1684" data-name="Grupo 1684" transform="translate(-662 -216)">
    <g id="Elipse_364" data-name="Elipse 364" transform="translate(662 216)" fill="none" stroke="#fff" stroke-width="3">
      <circle cx="38" cy="38" r="38" stroke="none"/>
      <circle cx="38" cy="38" r="36.5" fill="none"/>
    </g>
    <path id="Icon_awesome-clipboard-list" data-name="Icon awesome-clipboard-list" d="M28.646,5.456H21.826a5.456,5.456,0,1,0-10.913,0H4.092A4.093,4.093,0,0,0,0,9.549V39.559a4.093,4.093,0,0,0,4.092,4.092H28.646a4.093,4.093,0,0,0,4.092-4.092V9.549A4.093,4.093,0,0,0,28.646,5.456ZM8.185,36.149A2.046,2.046,0,1,1,10.231,34.1,2.041,2.041,0,0,1,8.185,36.149Zm0-8.185a2.046,2.046,0,1,1,2.046-2.046A2.041,2.041,0,0,1,8.185,27.964Zm0-8.185a2.046,2.046,0,1,1,2.046-2.046A2.041,2.041,0,0,1,8.185,19.78ZM16.369,3.41a2.046,2.046,0,1,1-2.046,2.046A2.041,2.041,0,0,1,16.369,3.41ZM27.282,34.785a.684.684,0,0,1-.682.682H14.323a.684.684,0,0,1-.682-.682V33.421a.684.684,0,0,1,.682-.682H26.6a.684.684,0,0,1,.682.682Zm0-8.185a.684.684,0,0,1-.682.682H14.323a.684.684,0,0,1-.682-.682V25.236a.684.684,0,0,1,.682-.682H26.6a.684.684,0,0,1,.682.682Zm0-8.185a.684.684,0,0,1-.682.682H14.323a.684.684,0,0,1-.682-.682V17.051a.684.684,0,0,1,.682-.682H26.6a.684.684,0,0,1,.682.682Z" transform="translate(683.631 232.174)" fill="#fff"/>
  </g>
</svg>
