<svg xmlns="http://www.w3.org/2000/svg" width="52" height="52" viewBox="0 0 52 52">
  <g id="Grupo_1681" data-name="Grupo 1681" transform="translate(-1522 -386)">
    <rect id="Retângulo_4063" data-name="Retângulo 4063" width="52" height="52" rx="10" transform="translate(1522 386)" fill="#56cdf9"/>
    <path id="Icon_awesome-eye" data-name="Icon awesome-eye" d="M33.546,14.895A18.793,18.793,0,0,0,16.875,4.5,18.8,18.8,0,0,0,.2,14.9a1.9,1.9,0,0,0,0,1.71A18.793,18.793,0,0,0,16.875,27,18.8,18.8,0,0,0,33.546,16.6,1.9,1.9,0,0,0,33.546,14.895ZM16.875,24.188a8.438,8.438,0,1,1,8.438-8.438A8.438,8.438,0,0,1,16.875,24.188Zm0-14.063a5.584,5.584,0,0,0-1.483.222,2.8,2.8,0,0,1-3.92,3.92,5.612,5.612,0,1,0,5.4-4.142Z" transform="translate(1531 396.5)" fill="#fff"/>
  </g>
</svg>
