<svg xmlns="http://www.w3.org/2000/svg" width="52" height="52" viewBox="0 0 52 52">
  <g id="Grupo_1700" data-name="Grupo 1700" transform="translate(-1588 -629)">
    <rect id="Retângulo_4064" data-name="Retângulo 4064" width="52" height="52" rx="10" transform="translate(1588 629)" fill="#53f268"/>
    <path id="Icon_awesome-file-export" data-name="Icon awesome-file-export" d="M23.336,7.408a1.454,1.454,0,0,0-.425-1.027L16.961.425A1.457,1.457,0,0,0,15.928,0h-.371V7.779h7.779ZM34.7,18.717l-5.816-5.858a.975.975,0,0,0-1.665.687V17.5H23.33v3.889h3.889v3.962a.975.975,0,0,0,1.665.687L34.7,20.176A1.034,1.034,0,0,0,34.7,18.717Zm-23.032,1.7V18.474a.975.975,0,0,1,.972-.972h10.7V9.723H15.071a1.463,1.463,0,0,1-1.459-1.459V0H1.459A1.455,1.455,0,0,0,0,1.459v28.2a1.455,1.455,0,0,0,1.459,1.459H21.878a1.455,1.455,0,0,0,1.459-1.459V21.391H12.64A.975.975,0,0,1,11.668,20.419Z" transform="translate(1596 639)" fill="#fff"/>
  </g>
</svg>
