<svg xmlns="http://www.w3.org/2000/svg" width="52" height="52" viewBox="0 0 52 52">
  <g id="Grupo_1674" data-name="Grupo 1674" transform="translate(-1207 -228)">
    <rect id="Retângulo_4066" data-name="Retângulo 4066" width="52" height="52" rx="10" transform="translate(1207 228)" fill="#fff"/>
    <path id="Icon_awesome-plus" data-name="Icon awesome-plus" d="M28.937,14.493H18.92V4.476A2.226,2.226,0,0,0,16.695,2.25H14.469a2.226,2.226,0,0,0-2.226,2.226V14.493H2.226A2.226,2.226,0,0,0,0,16.719v2.226A2.226,2.226,0,0,0,2.226,21.17H12.243V31.187a2.226,2.226,0,0,0,2.226,2.226h2.226a2.226,2.226,0,0,0,2.226-2.226V21.17H28.937a2.226,2.226,0,0,0,2.226-2.226V16.719A2.226,2.226,0,0,0,28.937,14.493Z" transform="translate(1217 235.75)" fill="#1ce8b1"/>
  </g>
</svg>
