<svg xmlns="http://www.w3.org/2000/svg" xmlns:xlink="http://www.w3.org/1999/xlink" width="452.866" height="452.866" viewBox="0 0 452.866 452.866">
  <defs>
    <filter id="Retângulo_4058" x="4.815" y="4.397" width="444.072" height="444.072" filterUnits="userSpaceOnUse">
      <feOffset dy="3" input="SourceAlpha"/>
      <feGaussianBlur stdDeviation="12.5" result="blur"/>
      <feFlood flood-opacity="0.161"/>
      <feComposite operator="in" in2="blur"/>
      <feComposite in="SourceGraphic"/>
    </filter>
    <filter id="Retângulo_4059" x="0" y="0" width="452.866" height="452.866" filterUnits="userSpaceOnUse">
      <feOffset dy="3" input="SourceAlpha"/>
      <feGaussianBlur stdDeviation="12.5" result="blur-2"/>
      <feFlood flood-opacity="0.161"/>
      <feComposite operator="in" in2="blur-2"/>
      <feComposite in="SourceGraphic"/>
    </filter>
    <filter id="Retângulo_4057" x="29.332" y="29.705" width="394.202" height="394.202" filterUnits="userSpaceOnUse">
      <feOffset dy="3" input="SourceAlpha"/>
      <feGaussianBlur stdDeviation="12.5" result="blur-3"/>
      <feFlood flood-opacity="0.161"/>
      <feComposite operator="in" in2="blur-3"/>
      <feComposite in="SourceGraphic"/>
    </filter>
  </defs>
  <g id="Grupo_1652" data-name="Grupo 1652" transform="translate(-214.067 -322.5)">
    <g transform="matrix(1, 0, 0, 1, 214.07, 322.5)" filter="url(#Retângulo_4058)">
      <rect id="Retângulo_4058-2" data-name="Retângulo 4058" width="318.59" height="318.59" rx="19" transform="matrix(0.98, 0.17, -0.17, 0.98, 97.64, 38.9)" fill="#fefefe"/>
    </g>
    <g transform="matrix(1, 0, 0, 1, 214.07, 322.5)" filter="url(#Retângulo_4059)">
      <rect id="Retângulo_4059-2" data-name="Retângulo 4059" width="318.59" height="318.59" rx="19" transform="matrix(0.98, -0.21, 0.21, 0.98, 37.5, 100.74)" fill="#fefefe"/>
    </g>
    <g transform="matrix(1, 0, 0, 1, 214.07, 322.5)" filter="url(#Retângulo_4057)">
      <rect id="Retângulo_4057-2" data-name="Retângulo 4057" width="319.202" height="319.202" rx="19" transform="translate(66.83 64.2)" fill="#7dcbff"/>
    </g>
    <path id="Icon_awesome-calendar-check" data-name="Icon awesome-calendar-check" d="M171.7,63.008H4.726A4.726,4.726,0,0,1,0,58.283V44.106A18.9,18.9,0,0,1,18.9,25.2H37.8V4.726A4.726,4.726,0,0,1,42.531,0H58.283a4.726,4.726,0,0,1,4.726,4.726V25.2h50.407V4.726A4.726,4.726,0,0,1,118.14,0h15.752a4.726,4.726,0,0,1,4.726,4.726V25.2h18.9a18.9,18.9,0,0,1,18.9,18.9V58.283A4.726,4.726,0,0,1,171.7,63.008ZM4.726,75.61H171.7a4.726,4.726,0,0,1,4.726,4.726V182.724a18.9,18.9,0,0,1-18.9,18.9H18.9A18.9,18.9,0,0,1,0,182.724V80.335A4.726,4.726,0,0,1,4.726,75.61Zm131.252,37.784-11.093-11.183a4.725,4.725,0,0,0-6.683-.027L76.445,143.606,58.338,125.352a4.726,4.726,0,0,0-6.683-.027L40.472,136.419a4.725,4.725,0,0,0-.027,6.683l32.528,32.791a4.725,4.725,0,0,0,6.683.027l56.3-55.843a4.725,4.725,0,0,0,.027-6.683Z" transform="translate(352.681 444.819)" fill="#fff"/>
  </g>
</svg>
