<?xml version="1.0" encoding="UTF-8" standalone="no"?>
<svg
   width="30"
   height="30"
   viewBox="0 0 30 30"
   version="1.1"
   id="svg3"
   sodipodi:docname="Icon awesome-plus.svg"
   inkscape:version="1.1 (c68e22c387, 2021-05-23)"
   xmlns:inkscape="http://www.inkscape.org/namespaces/inkscape"
   xmlns:sodipodi="http://sodipodi.sourceforge.net/DTD/sodipodi-0.dtd"
   xmlns="http://www.w3.org/2000/svg"
   xmlns:svg="http://www.w3.org/2000/svg">
  <defs
     id="defs7" />
  <sodipodi:namedview
     id="namedview5"
     pagecolor="#ffffff"
     bordercolor="#999999"
     borderopacity="1"
     inkscape:pageshadow="0"
     inkscape:pageopacity="0"
     inkscape:pagecheckerboard="0"
     showgrid="false"
     inkscape:zoom="10.392643"
     inkscape:cx="8.6599724"
     inkscape:cy="15.154952"
     inkscape:window-width="1366"
     inkscape:window-height="705"
     inkscape:window-x="-8"
     inkscape:window-y="-8"
     inkscape:window-maximized="1"
     inkscape:current-layer="svg3" />
  <path
     id="Icon_awesome-plus"
     data-name="Icon awesome-plus"
     d="m 27.613221,11.805816 h -9.46027 V 2.2218279 A 2.1022821,2.129775 0 0 0 16.051613,0.09205296 H 13.949331 A 2.1022821,2.129775 0 0 0 11.847049,2.2218279 v 9.5839881 h -9.46027 a 2.1022821,2.129775 0 0 0 -2.10228213,2.129775 v 2.129775 A 2.1022821,2.129775 0 0 0 2.386779,18.194184 h 9.46027 v 9.583988 a 2.1022821,2.129775 0 0 0 2.102282,2.129775 h 2.102282 a 2.1022821,2.129775 0 0 0 2.102282,-2.129775 v -9.583988 h 9.459326 a 2.1022821,2.129775 0 0 0 2.102282,-2.129775 v -2.128818 a 2.1022821,2.129775 0 0 0 -2.102282,-2.129775 z"
     fill="#53f2c7"
     style="stroke-width:0.950577" />
</svg>
