<svg xmlns="http://www.w3.org/2000/svg" width="90.726" height="90.725" viewBox="0 0 90.726 90.725">
  <g id="Grupo_1695" data-name="Grupo 1695" transform="translate(-10868 1713)">
    <circle id="Elipse_416" data-name="Elipse 416" cx="45.363" cy="45.363" r="45.363" transform="translate(10868 -1713)" fill="#fff9a0"/>
    <g id="g1105" transform="translate(10884.385 -1695.046)">
      <path id="path1166" d="M35.323,49.5c-3.928-1.275-7.092-6.62-6.419-10.844A9.835,9.835,0,0,1,36.441,30.1c7.426-2.023,14.038,5.038,11.923,12.731A10.049,10.049,0,0,1,35.323,49.5Zm6.669-7.429,3.9-4-1.527-1.49L42.838,35.1l-2.5,2.512-2.5,2.512-1.517-1.48L34.8,37.16l-1.519,1.482-1.519,1.482L34.645,43.1a25.783,25.783,0,0,0,3.167,2.972,44.825,44.825,0,0,0,4.18-4ZM8.615,25.558V5.046h19.9l6.16,6.289,6.16,6.289v7.933H38.915A14.408,14.408,0,0,0,25.453,35.58a17.635,17.635,0,0,0,.068,9.336l.329,1.154H8.615Zm29.2-6.29c0-.075-2.492-2.667-5.538-5.76L26.74,7.884V19.4h5.538c3.046,0,5.538-.062,5.538-.137Z"/>
    </g>
  </g>
</svg>
