<svg xmlns="http://www.w3.org/2000/svg" width="77.993" height="81.203" viewBox="0 0 77.993 81.203">
  <path id="Icon_ionic-ios-person" data-name="Icon ionic-ios-person" d="M82.455,83.652c-1.462-6.725-9.81-10-12.695-11.06-3.169-1.163-7.678-1.438-10.582-2.115-1.666-.381-4.083-1.332-4.9-2.347s-.325-10.425-.325-10.425a31.808,31.808,0,0,0,2.316-4.589A61.3,61.3,0,0,0,57.979,45.1s1.666,0,2.255-3.045c.63-3.32,1.625-4.61,1.5-7.084-.122-2.432-1.4-2.368-1.4-2.368s1.239-3.531,1.381-10.848C61.9,13.064,55.359,4.5,43.517,4.5c-12,0-18.4,8.564-18.219,17.256C25.46,29.072,26.659,32.6,26.659,32.6s-1.28-.063-1.4,2.368c-.122,2.474.873,3.764,1.5,7.084.569,3.045,2.255,3.045,2.255,3.045a61.3,61.3,0,0,0,1.706,8.015,31.807,31.807,0,0,0,2.316,4.589s.487,9.41-.325,10.425-3.23,1.967-4.9,2.347c-2.9.677-7.414.952-10.582,2.115C14.35,73.65,6,76.927,4.539,83.652a1.673,1.673,0,0,0,1.6,2.051H80.87A1.671,1.671,0,0,0,82.455,83.652Z" transform="translate(-4.501 -4.5)" fill="#fc605f"/>
</svg>
