<svg version="1.2" baseProfile="tiny-ps" xmlns="http://www.w3.org/2000/svg" viewBox="0 0 55 55" width="55" height="55">
	<title>Icon ionic-ios-arrow-dropright-circle-svg</title>
	<style>
		tspan { white-space:pre }
		.s0 { fill: #ffffff } 
	</style>
	<path id="Icon_ionic-ios-arrow-dropright-circle" fill-rule="evenodd" class="s0" d="m38.28 52.12c-10.12 4.19-21.78 1.88-29.52-5.87c-7.75-7.75-10.07-19.4-5.87-29.52c4.19-10.12 14.07-16.72 25.03-16.72c3.56 0 7.08 0.7 10.37 2.06c3.29 1.36 6.27 3.36 8.79 5.87c2.52 2.52 4.51 5.5 5.87 8.79c1.36 3.29 2.06 6.81 2.06 10.37c0 10.96-6.6 20.84-16.72 25.03zm-15.12-25.03l10.67-10.57c0.47-0.47 0.74-1.11 0.74-1.78c0-0.67-0.26-1.31-0.74-1.78c-0.47-0.47-1.11-0.74-1.78-0.74c-0.67 0-1.31 0.26-1.78 0.74l-12.43 12.47c-0.23 0.23-0.41 0.49-0.53 0.79c-0.13 0.29-0.19 0.61-0.2 0.93c-0.01 0.32 0.05 0.64 0.16 0.94c0.11 0.3 0.28 0.57 0.5 0.81l12.24 12.28c0.47 0.48 1.11 0.75 1.78 0.76c0.67 0 1.31-0.26 1.79-0.73c0.47-0.47 0.74-1.12 0.74-1.79c0-0.67-0.27-1.31-0.75-1.78l-10.41-10.55z" />
</svg>