<svg xmlns="http://www.w3.org/2000/svg" width="90.726" height="90.725" viewBox="0 0 90.726 90.725">
  <g id="Grupo_1694" data-name="Grupo 1694" transform="translate(11475 -1892.571)">
    <circle id="Elipse_325" data-name="Elipse 325" cx="45.363" cy="45.363" r="45.363" transform="translate(-11475 1892.571)" fill="#a0fff2"/>
    <path id="Icon_awesome-file" data-name="Icon awesome-file" d="M16.649,10.108V0H1.784A1.78,1.78,0,0,0,0,1.784V36.271a1.78,1.78,0,0,0,1.784,1.784H26.758a1.78,1.78,0,0,0,1.784-1.784V11.892H18.433A1.789,1.789,0,0,1,16.649,10.108ZM28.541,9.06v.453H19.028V0h.453a1.783,1.783,0,0,1,1.264.52L28.021,7.8A1.778,1.778,0,0,1,28.541,9.06Z" transform="translate(-11444.345 1919.115)"/>
  </g>
</svg>
