<svg xmlns="http://www.w3.org/2000/svg" viewBox="0 0 411.22 93.78"><defs><style>.cls-1{fill:#223354;}</style></defs><g id="Layer_2" data-name="Layer 2"><g id="Layer_1-2" data-name="Layer 1"><path class="cls-1" d="M0,0H16.84V72.78H0Z"/><path class="cls-1" d="M85,40.76v32H68.73V43.25c0-9-4.16-13.2-11.34-13.2C49.59,30.05,44,34.83,44,45.12V72.78H27.76V16.84H43.25v6.55C47.62,18.61,54.17,16,61.76,16,75,16,85,23.71,85,40.76Z"/><path class="cls-1" d="M152.74,16.84V63.42c0,20.8-11.23,30.36-31.4,30.36-10.61,0-20.9-2.6-27.45-7.69l6.44-11.65c4.79,3.85,12.59,6.35,19.76,6.35,11.44,0,16.43-5.2,16.43-15.29V63.11c-4.27,4.68-10.4,7-17.68,7-15.49,0-28-10.71-28-27s12.48-27,28-27c7.8,0,14.25,2.6,18.51,8V16.84Zm-16,26.2c0-8.21-6.14-13.72-14.67-13.72S107.3,34.83,107.3,43s6.24,13.73,14.76,13.73S136.73,51.26,136.73,43Z"/><path class="cls-1" d="M197.34,16V31c-1.35-.1-2.39-.2-3.64-.2-8.94,0-14.86,4.88-14.86,15.59V72.78H162.62V16.84h15.49v7.39C182.06,18.82,188.71,16,197.34,16Z"/><path class="cls-1" d="M255.78,49.39H213.46c1.56,7,7.49,11.23,16,11.23a19,19,0,0,0,14-5.41l8.63,9.36c-5.2,5.92-13,9-23.08,9-19.34,0-31.92-12.16-31.92-28.8S209.93,16,227,16c16.43,0,29.11,11,29.11,29C256.09,46.27,255.88,48,255.78,49.39Zm-42.53-9.46h27.56a13.3,13.3,0,0,0-13.73-11.65C219.7,28.28,214.4,32.75,213.25,39.93Z"/><path class="cls-1" d="M256.3,67.58l5.41-11.64a38.29,38.29,0,0,0,19.44,5.4c7.49,0,10.29-2,10.29-5.09,0-9.15-33.79.21-33.79-22.15,0-10.6,9.57-18.09,25.89-18.09,7.7,0,16.22,1.77,21.52,4.89l-5.4,11.54a32.12,32.12,0,0,0-16.12-4.16c-7.28,0-10.4,2.29-10.4,5.2,0,9.56,33.8.31,33.8,22.35,0,10.4-9.67,17.78-26.41,17.78C271.06,73.61,261.5,71,256.3,67.58Z"/><path class="cls-1" d="M306.31,67.58l5.41-11.64a38.29,38.29,0,0,0,19.44,5.4c7.49,0,10.3-2,10.3-5.09,0-9.15-33.8.21-33.8-22.15,0-10.6,9.57-18.09,25.89-18.09,7.7,0,16.22,1.77,21.53,4.89l-5.41,11.54a32.12,32.12,0,0,0-16.12-4.16c-7.28,0-10.39,2.29-10.39,5.2,0,9.56,33.79.31,33.79,22.35,0,10.4-9.67,17.78-26.41,17.78C321.08,73.61,311.51,71,306.31,67.58Z"/><path class="cls-1" d="M411.22,40.86V72.78H396v-7c-3,5.1-8.84,7.8-17.05,7.8-13.1,0-20.9-7.28-20.9-16.94,0-9.88,7-16.74,24-16.74H395c0-7-4.16-11-12.89-11A26.93,26.93,0,0,0,366,34.1l-5.82-11.33C366.3,18.4,375.35,16,384.29,16,401.34,16,411.22,23.91,411.22,40.86ZM395,55.11V49.39H383.88c-7.59,0-10,2.8-10,6.55,0,4.05,3.43,6.76,9.14,6.76C388.45,62.7,393.13,60.2,395,55.11Z"/></g></g></svg>