<svg xmlns="http://www.w3.org/2000/svg" width="174" height="174" viewBox="0 0 174 174">
  <g id="Grupo_1661" data-name="Grupo 1661" transform="translate(-654 -2081)">
    <circle id="Elipse_11" data-name="Elipse 11" cx="87" cy="87" r="87" transform="translate(654 2081)" fill="#fbee3f"/>
    <path id="Icon_awesome-pencil-alt" data-name="Icon awesome-pencil-alt" d="M77.922,21.451l-7.215,6.961a1.928,1.928,0,0,1-2.661,0L50.674,11.651a1.769,1.769,0,0,1,0-2.567l7.215-6.961a7.724,7.724,0,0,1,10.627,0L77.922,11.2A7.058,7.058,0,0,1,77.922,21.451ZM44.477,15.064,3.378,54.717.061,73.064a3.7,3.7,0,0,0,4.351,4.2l19.015-3.216,41.1-39.653a1.769,1.769,0,0,0,0-2.567L47.153,15.064a1.948,1.948,0,0,0-2.676,0ZM19.42,51.32a2.054,2.054,0,0,1,0-2.99l24.1-23.254a2.238,2.238,0,0,1,3.1,0,2.054,2.054,0,0,1,0,2.99L22.519,51.32a2.238,2.238,0,0,1-3.1,0Zm-5.65,12.7h7.512V69.5L11.188,71.207l-4.867-4.7,1.769-9.74H13.77Z" transform="translate(700.935 2129.34)" fill="#fff"/>
  </g>
</svg>
