<svg xmlns="http://www.w3.org/2000/svg" width="76" height="76" viewBox="0 0 76 76">
  <g id="Grupo_1680" data-name="Grupo 1680" transform="translate(-484 -222)">
    <g id="Elipse_364" data-name="Elipse 364" transform="translate(484 222)" fill="none" stroke="#fff" stroke-width="3">
      <circle cx="38" cy="38" r="38" stroke="none"/>
      <circle cx="38" cy="38" r="36.5" fill="none"/>
    </g>
    <g id="layer1" transform="translate(430.507 79.185)">
      <path id="path836" d="M82.041,199.428a71.616,71.616,0,0,1-4.33-17.339,22.751,22.751,0,0,1,3.019-13.975,25.533,25.533,0,0,0,1.4-3.555c.607-1.928.617-2.456.063-3.215a3.416,3.416,0,0,1-.664-1.561c0-.9,1.824-.824,2.177.1.244.636.61.579,2.424-.374a12.968,12.968,0,0,1,10.762,0c1.814.954,2.18,1.01,2.424.374.353-.92,2.177-1,2.177-.1a3.416,3.416,0,0,1-.664,1.561c-.555.759-.544,1.287.063,3.215a25.535,25.535,0,0,0,1.4,3.555c4.534,8.355,4.1,17.111-1.6,32.063-1.121,2.941-1.4,3.3-2.189,2.879-.857-.459-.827-.689.551-4.238,3.6-9.258,5.529-21.152,3.808-23.419-1.313-1.729-1.876-.514-1.551,3.345.344,4.078-.2,7.314-2.425,14.325-1.807,5.706-1.8,5.688-2.681,4.954-.583-.484-.7-.285-.7,1.162a3.6,3.6,0,0,0,.755,2.373c.578.479.621.788.183,1.315s-.738.551-1.254.122a.893.893,0,0,0-1.365,0c-.516.428-.822.4-1.254-.122s-.394-.836.183-1.315a3.039,3.039,0,0,0,.755-2.063c0-1.343-.13-1.436-2-1.436s-2,.093-2,1.436a3.039,3.039,0,0,0,.755,2.063c.578.479.621.788.183,1.315s-.738.551-1.254.122a.893.893,0,0,0-1.365,0c-.516.428-.822.4-1.254-.122s-.394-.836.183-1.315a3.6,3.6,0,0,0,.755-2.373c0-1.447-.121-1.647-.7-1.162-.884.733-.874.752-2.681-4.954-2.216-7-2.768-10.25-2.427-14.3.242-2.871.158-3.624-.429-3.85-1.849-.709-2.314,4.943-.951,11.557.879,4.267,3.433,12.585,4.509,14.684.627,1.224.6,1.4-.266,1.867s-1.11.119-2.531-3.6Zm10.676-11.1.818-1.248H89.5l.818,1.248c.45.686.991,1.248,1.2,1.248S92.267,189.014,92.717,188.328Zm-2.995-3.993.818-1.248H86.5l.818,1.248c.45.686.991,1.248,1.2,1.248S89.272,185.021,89.722,184.335Zm5.989,0,.818-1.248H92.49l.818,1.248c.45.686.991,1.248,1.2,1.248S95.262,185.021,95.711,184.335Zm-7.986-3.993.818-1.248H84.5l.818,1.248c.45.686.991,1.248,1.2,1.248S87.276,181.028,87.725,180.342Zm4.991,0,.818-1.248H89.5l.818,1.248c.45.686.991,1.248,1.2,1.248S92.267,181.028,92.717,180.342Zm4.991,0,.818-1.248H94.486l.818,1.248c.45.686.991,1.248,1.2,1.248S97.258,181.028,97.708,180.342Zm-3.787-8.179a27.22,27.22,0,0,1,3.958-2.758c1.329-.67,1.621-1.108,1.615-2.427A5.451,5.451,0,0,0,99,164.62c-.4-.619-.485-.626-.491-.039a3.24,3.24,0,0,1-2.544,2.535,3.188,3.188,0,0,1-1.879-1.265c-1.116-1.418-1.3-1.275-1.78,1.389-.186,1.029-.542,1.872-.792,1.872s-.606-.842-.792-1.872c-.481-2.664-.664-2.808-1.78-1.389a3.182,3.182,0,0,1-1.793,1.265,3.249,3.249,0,0,1-2.631-2.448c-.008-.7-.068-.7-.492-.047a5.466,5.466,0,0,0-.491,2.361c-.006,1.362.282,1.761,1.864,2.574a23.076,23.076,0,0,1,3.868,2.735,23.8,23.8,0,0,0,2.156,1.793,22.547,22.547,0,0,0,2.5-1.92Zm-5.616-7.6c.43-.7-.869-1.555-1.459-.965a.966.966,0,0,0,.676,1.52,1.139,1.139,0,0,0,.783-.555Zm7.978.013a.833.833,0,0,0-.1-.977c-.59-.59-1.889.269-1.459.965a.84.84,0,0,0,1.559.013Z" transform="translate(0 0)" fill="#fff"/>
    </g>
  </g>
</svg>
