<svg version="1.2" xmlns="http://www.w3.org/2000/svg" viewBox="0 0 17 15" width="17" height="15">
	<title>reset-svg</title>
	<style>
		.s0 { fill: #dd4949 } 
	</style>
	<g id="layer1">
		<g id="g4667">
			<path id="path4640" fill-rule="evenodd" class="s0" d="m7.8 14.6c-2.6-0.3-4.9-1.8-6-4-0.3-0.5-0.6-1.4-0.6-1.6 0 0 0.5 0 1 0h1.1l0.2 0.5c0.7 1.6 2.1 2.8 3.9 3.2 0.6 0.2 2 0.2 2.7 0 0.7-0.2 1.6-0.6 2.1-1 0.9-0.7 1.7-1.9 2-2.9 0.2-0.7 0.2-1.8 0.1-2.5-0.2-1.2-0.7-2-1.6-2.9-1.1-1-2.2-1.5-3.7-1.6-0.7 0-1 0-1.5 0.1-1.9 0.5-3.4 1.8-4 3.4l-0.2 0.3h-1.1-1v-0.2c0.1-0.4 0.6-1.4 0.9-1.9 0.5-0.7 1.4-1.7 2.1-2.1 4.3-2.9 10.2-1.1 11.9 3.6 1.5 4.4-1.6 9.1-6.5 9.6-0.8 0.1-1 0.1-1.8 0z"/>
			<g id="g4592-5-0">
				<path id="rect3717-9-8-2" class="s0" d="m0.1 8.7h4.4v0.9h-4.4z"/>
				<path id="path3783-0-6" fill-rule="evenodd" class="s0" d="m0 5.2h4.6l-2.4 3.6z"/>
			</g>
		</g>
	</g>
</svg>