<svg xmlns="http://www.w3.org/2000/svg" width="52.001" height="51.999" viewBox="0 0 52.001 51.999">
  <path id="Subtração_2" data-name="Subtração 2" d="M-7356-6005h-32a10.011,10.011,0,0,1-10-10v-32a10.011,10.011,0,0,1,10-10h32a10.011,10.011,0,0,1,10,10v32A10.011,10.011,0,0,1-7356-6005Zm-9.783-17.581c-1.3,0-1.951.173-2.112.562-.224.538.465,1.544,2.378,3.475,1.477,1.489,2.972,2.7,3.334,2.7s1.839-1.193,3.292-2.659c1.9-1.919,2.584-2.932,2.35-3.5-.168-.4-.816-.583-2.1-.583h-1.842l-.113-11.429c-.1-10.359-.179-11.471-.849-11.894a1.378,1.378,0,0,0-.737-.255,1.383,1.383,0,0,0-.737.255c-.669.421-.748,1.533-.849,11.894l-.113,11.429Zm-19.289,3.431a2.423,2.423,0,0,0-2.339,1.153,1.506,1.506,0,0,0,.486,1.669,2.372,2.372,0,0,0,1.593.423c1.031,0,2.321-.313,2.679-.886a1.256,1.256,0,0,0,.127-1.272,2.533,2.533,0,0,0-2.154-1.071C-7384.809-6019.144-7384.94-6019.149-7385.071-6019.149Zm.936-6.735c-2.447,0-3.314.416-3.314,1.589a2.012,2.012,0,0,0,.52,1.227c.283.284,1.165.421,2.694.421.353,0,.743-.007,1.159-.022,2.613-.094,3.429-.279,3.793-.858a1.2,1.2,0,0,0,0-1.474c-.365-.578-1.165-.763-3.723-.86C-7383.437-6025.877-7383.807-6025.885-7384.135-6025.885Zm.9-6.737c-3.349,0-4.216.327-4.216,1.588a2,2,0,0,0,.518,1.224c.293.294,1.406.425,3.606.425.549,0,1.18-.008,1.929-.026,4.221-.1,5.092-.233,5.481-.854a1.2,1.2,0,0,0,0-1.474c-.392-.62-1.252-.756-5.412-.856C-7382.081-6032.613-7382.7-6032.622-7383.233-6032.622Zm.825-6.737c-4.379,0-5.041.357-5.041,1.587a1.993,1.993,0,0,0,.517,1.222c.3.3,1.657.425,4.543.425.74,0,1.615-.009,2.675-.026,5.825-.1,6.763-.211,7.167-.852a1.192,1.192,0,0,0,0-1.474c-.4-.641-1.331-.752-7.1-.852C-7380.758-6039.349-7381.661-6039.359-7382.409-6039.359Zm1.267-6.731c-3.585,0-5.4.125-5.726.392a1.555,1.555,0,0,0-.558,1.141,1.686,1.686,0,0,0,.491,1.268c.3.3,1.893.425,5.49.425,1.054,0,2.2-.009,3.412-.026,7.448-.1,8.441-.2,8.854-.851a1.2,1.2,0,0,0,0-1.474c-.413-.655-1.4-.75-8.788-.851C-7379.162-6046.082-7380.2-6046.09-7381.142-6046.09Z" transform="translate(7398 6056.999)" fill="#fff"/>
</svg>
