<svg xmlns="http://www.w3.org/2000/svg" width="76" height="76" viewBox="0 0 76 76">
  <g id="Grupo_1679" data-name="Grupo 1679" transform="translate(-484 -222)">
    <g id="Elipse_364" data-name="Elipse 364" transform="translate(484 222)" fill="none" stroke="#fff" stroke-width="3">
      <circle cx="38" cy="38" r="38" stroke="none"/>
      <circle cx="38" cy="38" r="36.5" fill="none"/>
    </g>
    <g id="layer1" transform="translate(433.941 91.877)">
      <path id="path1033" d="M79.318,186.373c-3.344-1.052-5.2-3.931-4.963-7.689.129-2.026.475-2.987,2.108-5.861,2.638-4.643,5.134-7.666,7.266-8.8,1.51-.8,2.211-.924,4.751-.815,2.473.106,3.262.314,4.636,1.223,2,1.323,4.98,5.278,7.131,9.462,1.28,2.49,1.584,3.493,1.584,5.23a7.186,7.186,0,0,1-3.224,6.348c-2.7,2.189-6.892,1.577-11,1.657a34.624,34.624,0,0,1-8.292-.752Zm10.314-6.708V177.7h1.96c1.762,0,2.234-.018,2.234-1.468,0-1.713-.049-1.68-2.193-1.68H89.672l-.119-2.066c-.053-1.76.227-1.958-1.5-2.066-1.763.032-1.406.5-1.5,2.066l-.119,2.066H84.482c-2.144,0-1.807-.057-1.87,1.626s.148,1.522,1.91,1.522h1.96v1.968c-.084,1.87-.021,1.968,1.574,1.968s1.574-.262,1.574-1.968ZM70.564,169a6.64,6.64,0,0,1-.412-9.348c1.143-1.247,1.552-1.437,3.092-1.437a3.5,3.5,0,0,1,2.984,1.158,6.786,6.786,0,0,1,1.212,7.876c-1.493,3.084-4.489,3.848-6.876,1.752Zm29.514,0a6.64,6.64,0,0,1-.412-9.348c1.143-1.247,1.552-1.437,3.092-1.437a3.5,3.5,0,0,1,2.984,1.158,6.786,6.786,0,0,1,1.212,7.876c-1.493,3.084-4.489,3.848-6.876,1.752Zm-20.127-8.58c-2.169-1.322-3.146-5.284-1.979-8.022,1.894-4.446,6.78-4.35,8.653.169a6.122,6.122,0,0,1-1.312,7.108c-1.728,1.728-3.374,1.957-5.361.745Zm10.851-.745a6.122,6.122,0,0,1-1.312-7.108c1.424-3.436,4.757-4.527,7.135-2.336,3.913,3.6,1.844,10.936-3.085,10.936C92.622,161.17,91.9,160.777,90.8,159.678Z" transform="translate(0)" fill="#fff"/>
    </g>
  </g>
</svg>
