<svg xmlns="http://www.w3.org/2000/svg" width="174" height="174" viewBox="0 0 174 174">
  <g id="Grupo_1658" data-name="Grupo 1658" transform="translate(-215 -1593)">
    <circle id="Elipse_3" data-name="Elipse 3" cx="87" cy="87" r="87" transform="translate(215 1593)" fill="#f97171"/>
    <g id="layer1" transform="translate(160.342 1458.184)">
      <path id="path836" d="M145.9,261.939c-6.57-1.849-9.674-3.527-13.912-7.525-3.471-3.274-3.513-3.4-2.947-8.811.83-7.946,1.24-8.627,5.209-8.651,7.331-.044,15.594-6.265,18-13.552,1.044-3.163,1.363-3.375,5.043-3.354a40.305,40.305,0,0,1,7.383.825c3.169.737,3.821.5,7.909-2.879,2.45-2.025,4.917-3.527,5.483-3.339,2.8.934,4.775,6.836,4.939,14.773a66.174,66.174,0,0,0,1.173,11.783c1.951,7.291,1.425,9.833-2.854,13.783a33.923,33.923,0,0,1-9.181,5.61c-6.885,2.616-19.425,3.254-26.243,1.335Zm11.082-7.258a14.757,14.757,0,0,1,3.531.672c1.717.545,2.119.314,2.119-1.22a2.734,2.734,0,0,0-1.445-2.447c-1.279-.491-1.26-.837.161-3.006,1.959-2.99.743-4.145-4.365-4.145s-6.325,1.155-4.365,4.145c1.421,2.169,1.44,2.515.161,3.006a2.733,2.733,0,0,0-1.445,2.447c0,1.534.4,1.765,2.119,1.22a14.75,14.75,0,0,1,3.531-.672ZM152.74,239.8c0-1.726-.567-2.434-2.123-2.655-2.314-.328-3.628,1.691-2.69,4.134a2.359,2.359,0,0,0,2.69,1.177C152.174,242.233,152.74,241.524,152.74,239.8Zm13.182,0c0-1.726-.567-2.434-2.123-2.655-2.314-.328-3.628,1.691-2.69,4.134a2.359,2.359,0,0,0,2.69,1.177C165.356,242.233,165.923,241.524,165.923,239.8Zm-51.806-7.9c-3.988-1.738-8.718-7.443-9.463-11.413a16.4,16.4,0,0,1,2.115-11.674c.925-1.412,1.593-4.476,1.651-7.582.179-9.424,5.007-15.667,13.97-18.064a14.13,14.13,0,0,1,8.911,0c8.963,2.4,13.791,8.641,13.97,18.064.059,3.106.726,6.17,1.651,7.582a15.226,15.226,0,0,1-1.512,18.439,16.2,16.2,0,0,1-12.885,5.96h-3.8v-5.688c0-4.4.473-6.328,2.1-8.523,1.789-2.42,1.892-2.964.706-3.714-1.794-1.134-7.577-1.134-9.371,0-1.186.75-1.083,1.294.706,3.714,1.623,2.195,2.1,4.119,2.1,8.523v5.688l-4-.037a21.189,21.189,0,0,1-6.844-1.275Zm8.492-25.994c0-1.726-.567-2.434-2.123-2.655a2.359,2.359,0,0,0-2.69,1.177c-.938,2.443.376,4.462,2.69,4.134,1.556-.221,2.123-.93,2.123-2.655Zm13.182,0c0-1.726-.567-2.434-2.123-2.655a2.359,2.359,0,0,0-2.69,1.177c-.938,2.443.376,4.462,2.69,4.134,1.556-.221,2.123-.93,2.123-2.655Zm-35.533-2.207c-3.212-2.977-3.9-5.626-2.536-9.761,1.629-4.935,8.817-12.328,12.693-13.056,5.043-.946,5.311.338.916,4.389a22.1,22.1,0,0,0-7.083,16.564c0,4.651-.652,4.956-3.99,1.863Zm49.187-1.862a22.1,22.1,0,0,0-7.083-16.564c-4.408-4.063-4.128-5.336.965-4.38,3.823.717,11.083,8.315,12.738,13.332a8.6,8.6,0,0,1-3.387,10.224C149.561,206.485,149.445,206.391,149.445,201.831Z" transform="translate(0 0)" fill="#fff"/>
    </g>
  </g>
</svg>
