<svg xmlns="http://www.w3.org/2000/svg" width="76" height="76" viewBox="0 0 76 76">
  <g id="Grupo_1675" data-name="Grupo 1675" transform="translate(-484 -222)">
    <g id="Grupo_1674" data-name="Grupo 1674">
      <g id="Grupo_1673" data-name="Grupo 1673">
        <g id="Grupo_1671" data-name="Grupo 1671">
          <g id="Elipse_364" data-name="Elipse 364" transform="translate(484 222)" fill="none" stroke="#fff" stroke-width="3">
            <circle cx="38" cy="38" r="38" stroke="none"/>
            <circle cx="38" cy="38" r="36.5" fill="none"/>
          </g>
        </g>
      </g>
    </g>
    <g id="layer1" transform="translate(401.512 51.416)">
      <path id="path1561" d="M111.432,229.032c-4.43-5.046-5.091-13.361-1.6-20.116,1.709-3.306,4.668-4.683,3.921-1.825-.934,3.57,7.432,9.159,11.687,7.808,5.205-1.652-.846,11.432-6.52,14.1a14.858,14.858,0,0,0-4.039,2.486C114.579,231.949,113.025,230.846,111.432,229.032Zm11-5.114c0-.463-1.364-1.317-3.032-1.9a36.187,36.187,0,0,1-6.53-3.37c-3.2-2.118-3.5-2.167-3.5-.579,0,3.157,5.308,6.509,10.495,6.629C121.281,224.732,122.436,224.381,122.436,223.918Zm-.466-12.374c-6.36-3.517-7.84-8.414-3.774-12.48,3.139-3.139,4.586-2.877,6.021,1.09.932,2.578,2.084,3.718,4.852,4.806,4.064,1.6,4.509,3.062,1.764,5.807C128.786,212.812,124.882,213.154,121.969,211.543Zm-12.127-8.4c-5.4-2.989-10.13-10.168-9.617-14.608.56-4.845,13.046-2.017,18.705,4.236,1.556,1.719,1.511,1.876-1.086,3.8a9.756,9.756,0,0,0-3.331,4.833C113.851,204.421,112.832,204.8,109.842,203.148Zm19.418.149c-4-1.612-5.125-6.405-2.409-10.281a6.731,6.731,0,0,0,1.341-3.94c-.271-1.6,2.963-3.5,5.966-3.5,2.458,0,1.376,1.625-1.46,2.192-4.73.946-3.215,2.433,1.866,1.832,3.191-.378,4.664-.217,4.664.51,0,.585-.667,1.063-1.482,1.063-1.152,0-.945.639.933,2.87,5.572,6.622-.687,12.769-9.418,9.251Zm9.035-5.913c0-1.758-3.408-4.653-4.606-3.912-2.294,1.418-.171,5.167,2.926,5.167C137.539,198.639,138.294,198.074,138.294,197.384Zm-19.335-6.763c-4.327-4.51-3.947-5.526.627-1.677,2.93,2.465,5.39,6.036,4.048,5.875-.4-.048-2.507-1.937-4.675-4.2Z" transform="translate(0 0)" fill="#fff"/>
    </g>
  </g>
</svg>
